<svg xmlns="http://www.w3.org/2000/svg" width="14.763" height="19.635" viewBox="0 0 14.763 19.635">
  <g id="calendar_1_" data-name="calendar (1)" transform="translate(0)">
    <path id="Path_1" data-name="Path 1" d="M59.549,1.534H58.5V1.15A1.107,1.107,0,0,0,57.442,0h0a1.107,1.107,0,0,0-1.054,1.15v.383H54.281V1.15A1.107,1.107,0,0,0,53.227,0h0a1.107,1.107,0,0,0-1.054,1.15v.383H50.066V1.15A1.107,1.107,0,0,0,49.012,0h0a1.107,1.107,0,0,0-1.054,1.15v.383H46.9a1.111,1.111,0,0,0-1.065,1.15v15.8a1.111,1.111,0,0,0,1.065,1.15H59.549a1.107,1.107,0,0,0,1.054-1.15V2.684A1.107,1.107,0,0,0,59.549,1.534ZM57.091,1.15a.353.353,0,1,1,.7,0V2.684a.353.353,0,1,1-.7,0Zm-4.215,0a.353.353,0,1,1,.7,0V2.684a.353.353,0,1,1-.7,0Zm-4.215,0a.353.353,0,1,1,.7,0V2.684a.353.353,0,1,1-.7,0ZM46.9,2.3h1.054v.383a1.058,1.058,0,1,0,2.107,0V2.3h2.107v.383a1.058,1.058,0,1,0,2.107,0V2.3h2.107v.383a1.058,1.058,0,1,0,2.107,0V2.3h1.054a.369.369,0,0,1,.351.383v2.3H46.542v-2.3A.378.378,0,0,1,46.9,2.3ZM59.549,18.868H46.9a.378.378,0,0,1-.363-.383V5.753H59.9V18.485A.369.369,0,0,1,59.549,18.868Z" transform="translate(-45.84)" fill-rule="evenodd"/>
    <path id="Path_2" data-name="Path 2" d="M167.7,223.957l-.746-1.664a.494.494,0,0,0-.218-.239.454.454,0,0,0-.63.236l-.748,1.667-1.686.262h0a.457.457,0,0,0-.272.151.549.549,0,0,0,.009.729l1.222,1.293-.293,1.831h0a.555.555,0,0,0,.047.329.453.453,0,0,0,.638.216l1.5-.87,1.48.856a.438.438,0,0,0,.325.066.514.514,0,0,0,.384-.6l-.293-1.831,1.206-1.276a.529.529,0,0,0,.154-.313.51.51,0,0,0-.4-.583Z" transform="translate(-159.146 -213.487)" fill="#afa695" fill-rule="evenodd"/>
  </g>
</svg>
