<?xml version="1.0" encoding="iso-8859-1"?>
<!-- Generator: Adobe Illustrator 19.0.0, SVG Export Plug-In . SVG Version: 6.00 Build 0)  -->
<svg version="1.1" id="Capa_1" xmlns="http://www.w3.org/2000/svg" xmlns:xlink="http://www.w3.org/1999/xlink" x="0px" y="0px"
	 viewBox="0 0 512 512" style="enable-background:new 0 0 512 512;" xml:space="preserve">
<g>
	<g>
		<path d="M291.89,246.194h-71.78c-4.15,0-7.513,3.364-7.513,7.513c0,4.149,3.363,7.513,7.513,7.513h71.78
			c4.15,0,7.513-3.364,7.513-7.513S296.04,246.194,291.89,246.194z"/>
	</g>
</g>
<g>
	<g>
		<path d="M291.89,274.682h-71.78c-4.15,0-7.513,3.364-7.513,7.513s3.363,7.513,7.513,7.513h71.78c4.15,0,7.513-3.364,7.513-7.513
			S296.04,274.682,291.89,274.682z"/>
	</g>
</g>
<g>
	<g>
		<path d="M286.881,327.428h-61.762c-6.905,0-12.522,5.617-12.522,12.522v40.548c0,6.905,5.617,12.522,12.522,12.522h61.762
			c6.905,0,12.522-5.617,12.522-12.522V339.95C299.403,333.045,293.786,327.428,286.881,327.428z M284.376,377.994h-56.753v-35.539
			h56.753V377.994z"/>
	</g>
</g>
<g>
	<g>
		<path d="M349.281,154.507h-31.55V33.365c0-12.075-9.823-21.898-21.898-21.898h-5.69C289.603,5.055,284.222,0,277.673,0h-43.958
			c-6.549,0-11.93,5.055-12.469,11.467h-5.079c-12.075,0-21.898,9.824-21.898,21.898v121.142h-31.55
			c-20.163,0-36.567,16.404-36.567,36.568v189.147c0,4.15,3.363,7.513,7.513,7.513c4.15,0,7.513-3.364,7.513-7.513V191.074
			c0-11.878,9.663-21.541,21.54-21.541h186.563c11.878,0,21.54,9.663,21.54,21.541v33.87c0,4.149,3.363,7.513,7.513,7.513
			c4.15,0,7.513-3.364,7.513-7.513v-33.87C385.849,170.911,369.444,154.507,349.281,154.507z M236.22,15.027h38.949v9.223H236.22
			V15.027z M302.704,154.507h-93.409V33.365c0-3.789,3.083-6.872,6.872-6.872h5.026v0.261c0,6.905,5.617,12.522,12.522,12.522
			h43.958c6.905,0,12.522-5.617,12.522-12.522v-0.261h5.637c3.789,0,6.872,3.083,6.872,6.872V154.507z"/>
	</g>
</g>
<g>
	<g>
		<path d="M378.335,271.155c-4.15,0-7.513,3.364-7.513,7.513V446.93c0,14.524-9.059,25.066-21.54,25.066h-4.507H294.82h-77.638
			h-49.955h-4.507c-11.878,0-21.54-9.663-21.54-21.541v-15.136c0-4.149-3.363-7.513-7.513-7.513c-4.15,0-7.513,3.364-7.513,7.513
			v15.136c0,19.446,15.259,35.39,34.432,36.5C163.959,501.293,176.85,512,192.203,512c15.329,0,28.204-10.674,31.605-24.977h64.385
			c3.4,14.303,16.275,24.977,31.604,24.977c15.353,0,28.242-10.707,31.619-25.043c19.775-1.134,34.432-17.958,34.432-40.027V278.669
			C385.849,274.519,382.485,271.155,378.335,271.155z M192.203,496.973c-6.941,0-12.95-4.071-15.763-9.95h31.528
			C205.154,492.902,199.145,496.973,192.203,496.973z M319.797,496.973c-6.942,0-12.951-4.071-15.764-9.95h31.528
			C332.747,492.902,326.738,496.973,319.797,496.973z"/>
	</g>
</g>
<g>
	<g>
		<path d="M320.46,204.55H191.539c-14.79,0-26.822,12.033-26.822,26.823v178.783c0,14.79,12.032,26.823,26.822,26.823H320.46
			c14.79,0,26.822-12.033,26.822-26.823V231.373C347.282,216.583,335.25,204.55,320.46,204.55z M332.255,410.156
			c0,6.504-5.292,11.796-11.795,11.796H191.539c-6.504,0-11.795-5.292-11.795-11.796V231.373c0-6.504,5.292-11.796,11.795-11.796
			H320.46c6.504,0,11.795,5.292,11.795,11.796V410.156z"/>
	</g>
</g>
<g>
</g>
<g>
</g>
<g>
</g>
<g>
</g>
<g>
</g>
<g>
</g>
<g>
</g>
<g>
</g>
<g>
</g>
<g>
</g>
<g>
</g>
<g>
</g>
<g>
</g>
<g>
</g>
<g>
</g>
</svg>
